# xmcd
#
# Track frame offsets:
#	150
#	3285
#	30272
#	53230
#	73500
#	89850
#	115620
#	136605
#	157275
#	181050
#	201630
#	227160
#	253875
#	279836
#	303675
#
# Disc length: 4317 seconds
#
# Revision: 0
# Processed by: cddbd v1.5.1PL2 Copyright (c) Steve Scherf et al.
# Submitted via: EasyCDDAExtractor 8.2.2.1
#
DISCID=cf10db0f
DTITLE=Various Artist - theSunsetSession2006summer
DYEAR=1900
DGENRE=
TTITLE0=01 INTRO - (pure consciousness)
TTITLE1=02 VARGO - Get back to serenity (beach mix)
TTITLE2=03 JOY - The crow (dream mix)
TTITLE3=04 MODRIVE - Silence
TTITLE4=05 FUTURE LOOP FOUNDATION - Monika's summer
TTITLE5=06 HEY NEGRITA - One mississippi (chris coco mix)
TTITLE6=07 PIXIEFISH - Stars (ocean mix)
TTITLE7=08 MADS ARP feat. JULIE HARRINGTON - The meaning of love
TTITLE8=09 DE-PHAZZ feat. PAT APPLETON - Anchorless
TTITLE9=10 VIGGO feat. GLOW - Rivers flow
TTITLE10=11 VICTOR G. DE LA FUENTE feat. SCAR PORTUGUES - Tu despertar (origin
TTITLE10=al chill mix)
TTITLE11=12 HARLEY and MUSCLE (feat. SIMONA BENCINI) - Frateli ditalia (dolls 
TTITLE11=combers VS thomas lee roy remix)
TTITLE12=13 AMBER - Sexual (afterlife mix)
TTITLE13=14 ABAKUS - Nightwalker
TTITLE14=15 TRIANGLE SUN - Beautiful
EXTD=
EXTT0=
EXTT1=
EXTT2=
EXTT3=
EXTT4=
EXTT5=
EXTT6=
EXTT7=
EXTT8=
EXTT9=
EXTT10=
EXTT11=
EXTT12=
EXTT13=
EXTT14=
PLAYORDER=
